{
	"asset":{
		"generator":"Khronos glTF Blender I/O v4.0.44",
		"version":"2.0"
	},
	"scene":0,
	"scenes":[
		{
			"name":"Scene",
			"nodes":[
				0
			]
		}
	],
	"nodes":[
		{
			"mesh":0,
			"name":"Neon-JAN",
			"rotation":[
				0,
				-0.9950101375579834,
				-0.09977386891841888,
				4.349327653585533e-08
			],
			"scale":[
				0.0009999994654208422,
				0.0009999992325901985,
				0.0009999992325901985
			]
		}
	],
	"materials":[
		{
			"doubleSided":true,
			"name":"Material.001",
			"pbrMetallicRoughness":{
				"baseColorFactor":[
					0.09850398451089859,
					0.09850398451089859,
					0.09850398451089859,
					1
				],
				"metallicFactor":0,
				"roughnessFactor":0.5
			}
		}
	],
	"meshes":[
		{
			"name":"Neon-JAN.002",
			"primitives":[
				{
					"attributes":{
						"POSITION":0,
						"NORMAL":1
					},
					"indices":2,
					"material":0
				}
			]
		}
	],
	"accessors":[
		{
			"bufferView":0,
			"componentType":5126,
			"count":2357587,
			"max":[
				71.54395294189453,
				11.62376594543457,
				3.9176344871520996
			],
			"min":[
				-71.55626678466797,
				-40.60151672363281,
				-160.89450073242188
			],
			"type":"VEC3"
		},
		{
			"bufferView":1,
			"componentType":5126,
			"count":2357587,
			"type":"VEC3"
		},
		{
			"bufferView":2,
			"componentType":5125,
			"count":2382108,
			"type":"SCALAR"
		}
	],
	"bufferViews":[
		{
			"buffer":0,
			"byteLength":28291044,
			"byteOffset":0,
			"target":34962
		},
		{
			"buffer":0,
			"byteLength":28291044,
			"byteOffset":28291044,
			"target":34962
		},
		{
			"buffer":0,
			"byteLength":9528432,
			"byteOffset":56582088,
			"target":34963
		}
	],
	"buffers":[
		{
			"byteLength":66110520,
			"uri":"JAN.bin"
		}
	]
}
