{
	"asset":{
		"generator":"Khronos glTF Blender I/O v4.1.62",
		"version":"2.0"
	},
	"scene":0,
	"scenes":[
		{
			"extras":{
				"dynamic_sky_name":"Dynamic_1",
				"rec_dir":"/Users/robertennis/Documents/pupil/tag-aligner/recordings/2024-04-12_185528/",
				"gaze_cone_intersect":1
			},
			"name":"Scene",
			"nodes":[
				0,
				1,
				2,
				3,
				4
			]
		}
	],
	"nodes":[
		{
			"mesh":0,
			"name":"GazeRay",
			"rotation":[
				-0.5086743235588074,
				-0.17963232100009918,
				0.07958048582077026,
				0.8382420539855957
			],
			"scale":[
				0.800000011920929,
				0,
				0.7999998927116394
			],
			"translation":[
				-0.9544997215270996,
				1.6822153329849243,
				1.5543636083602905
			]
		},
		{
			"mesh":1,
			"name":"Gaze",
			"rotation":[
				0.70710688829422,
				0,
				0,
				0.7071066498756409
			],
			"scale":[
				0.08124099671840668,
				0.08124100416898727,
				0.08124100416898727
			],
			"translation":[
				-1000,
				-1000,
				1000
			]
		},
		{
			"mesh":2,
			"name":"Frustum",
			"rotation":[
				0.5241351127624512,
				-0.4225892722606659,
				-0.03936086222529411,
				0.7383437156677246
			],
			"scale":[
				0.13166600465774536,
				0.13584502041339874,
				0.12252701073884964
			],
			"translation":[
				-0.9544997215270996,
				1.6822153329849243,
				1.5543636083602905
			]
		},
		{
			"mesh":3,
			"name":"FrustumFrame",
			"rotation":[
				0.5241351127624512,
				-0.4225892722606659,
				-0.03936086222529411,
				0.7383437156677246
			],
			"scale":[
				0.13166600465774536,
				0.13584502041339874,
				0.12252701073884964
			],
			"translation":[
				-0.9544997215270996,
				1.6822153329849243,
				1.5543636083602905
			]
		},
		{
			"mesh":4,
			"name":"Neon-JAN",
			"rotation":[
				-0.04256979376077652,
				0.969569206237793,
				-0.1439606249332428,
				0.19338776171207428
			],
			"scale":[
				0.0010000000474974513,
				0.0010000000474974513,
				0.0010000001639127731
			],
			"translation":[
				-0.9544997215270996,
				1.6822153329849243,
				1.5543636083602905
			]
		}
	],
	"materials":[
		{
			"doubleSided":true,
			"name":"Material.002",
			"pbrMetallicRoughness":{
				"baseColorFactor":[
					1,
					0,
					0.009730389341711998,
					1
				],
				"metallicFactor":0
			}
		},
		{
			"alphaMode":"BLEND",
			"doubleSided":true,
			"name":"Material",
			"pbrMetallicRoughness":{}
		},
		{
			"alphaMode":"BLEND",
			"doubleSided":true,
			"name":"Material.003",
			"pbrMetallicRoughness":{
				"baseColorFactor":[
					0.07348930090665817,
					0.30948036909103394,
					0.6450693011283875,
					1
				],
				"metallicFactor":0
			}
		},
		{
			"doubleSided":true,
			"name":"Material.005",
			"pbrMetallicRoughness":{
				"baseColorFactor":[
					0.09850398451089859,
					0.09850398451089859,
					0.09850398451089859,
					1
				],
				"metallicFactor":0,
				"roughnessFactor":0.5
			}
		}
	],
	"meshes":[
		{
			"name":"Cylinder.004",
			"primitives":[
				{
					"attributes":{
						"POSITION":0,
						"NORMAL":1,
						"TEXCOORD_0":2,
						"TANGENT":3
					},
					"indices":4,
					"material":0
				}
			]
		},
		{
			"name":"Torus.004",
			"primitives":[
				{
					"attributes":{
						"POSITION":5,
						"NORMAL":6,
						"TEXCOORD_0":7,
						"TANGENT":8
					},
					"indices":9,
					"material":0
				}
			]
		},
		{
			"name":"Cone.004",
			"primitives":[
				{
					"attributes":{
						"POSITION":10,
						"NORMAL":11,
						"TEXCOORD_0":12,
						"TANGENT":13
					},
					"indices":14,
					"material":1
				}
			]
		},
		{
			"name":"Cone.005",
			"primitives":[
				{
					"attributes":{
						"POSITION":15,
						"NORMAL":16,
						"TEXCOORD_0":17,
						"TANGENT":18
					},
					"indices":19,
					"material":2
				}
			]
		},
		{
			"name":"Neon-JAN.002",
			"primitives":[
				{
					"attributes":{
						"POSITION":20,
						"NORMAL":21
					},
					"indices":22,
					"material":3
				}
			]
		}
	],
	"accessors":[
		{
			"bufferView":0,
			"componentType":5126,
			"count":212,
			"max":[
				0.014006923884153366,
				1.0000072717666626,
				0.015185469761490822
			],
			"min":[
				-0.021271076053380966,
				7.271766662597656e-06,
				-0.02009252831339836
			],
			"type":"VEC3"
		},
		{
			"bufferView":1,
			"componentType":5126,
			"count":212,
			"type":"VEC3"
		},
		{
			"bufferView":2,
			"componentType":5126,
			"count":212,
			"type":"VEC2"
		},
		{
			"bufferView":3,
			"componentType":5126,
			"count":212,
			"type":"VEC4"
		},
		{
			"bufferView":4,
			"componentType":5123,
			"count":372,
			"type":"SCALAR"
		},
		{
			"bufferView":5,
			"componentType":5126,
			"count":2304,
			"max":[
				1.25,
				0.25,
				1.25
			],
			"min":[
				-1.25,
				-0.25,
				-1.25
			],
			"type":"VEC3"
		},
		{
			"bufferView":6,
			"componentType":5126,
			"count":2304,
			"type":"VEC3"
		},
		{
			"bufferView":7,
			"componentType":5126,
			"count":2304,
			"type":"VEC2"
		},
		{
			"bufferView":8,
			"componentType":5126,
			"count":2304,
			"type":"VEC4"
		},
		{
			"bufferView":9,
			"componentType":5123,
			"count":3456,
			"type":"SCALAR"
		},
		{
			"bufferView":10,
			"componentType":5126,
			"count":16,
			"max":[
				0.6859381198883057,
				0.08297252655029297,
				0.656804621219635
			],
			"min":[
				-0.7270411849021912,
				-2.027242660522461,
				-0.7561746835708618
			],
			"type":"VEC3"
		},
		{
			"bufferView":11,
			"componentType":5126,
			"count":16,
			"type":"VEC3"
		},
		{
			"bufferView":12,
			"componentType":5126,
			"count":16,
			"type":"VEC2"
		},
		{
			"bufferView":13,
			"componentType":5126,
			"count":16,
			"type":"VEC4"
		},
		{
			"bufferView":14,
			"componentType":5123,
			"count":18,
			"type":"SCALAR"
		},
		{
			"bufferView":15,
			"componentType":5126,
			"count":128,
			"max":[
				0.6947522163391113,
				0.0929701179265976,
				0.6657403707504272
			],
			"min":[
				-0.7360292673110962,
				-2.031944751739502,
				-0.7650400996208191
			],
			"type":"VEC3"
		},
		{
			"bufferView":16,
			"componentType":5126,
			"count":128,
			"type":"VEC3"
		},
		{
			"bufferView":17,
			"componentType":5126,
			"count":128,
			"type":"VEC2"
		},
		{
			"bufferView":18,
			"componentType":5126,
			"count":128,
			"type":"VEC4"
		},
		{
			"bufferView":19,
			"componentType":5123,
			"count":192,
			"type":"SCALAR"
		},
		{
			"bufferView":20,
			"componentType":5126,
			"count":2357605,
			"max":[
				71.54395294189453,
				11.62376594543457,
				3.9176344871520996
			],
			"min":[
				-71.55626678466797,
				-40.60151672363281,
				-160.89450073242188
			],
			"type":"VEC3"
		},
		{
			"bufferView":21,
			"componentType":5126,
			"count":2357605,
			"type":"VEC3"
		},
		{
			"bufferView":22,
			"componentType":5125,
			"count":2382108,
			"type":"SCALAR"
		}
	],
	"bufferViews":[
		{
			"buffer":0,
			"byteLength":2544,
			"byteOffset":0,
			"target":34962
		},
		{
			"buffer":0,
			"byteLength":2544,
			"byteOffset":2544,
			"target":34962
		},
		{
			"buffer":0,
			"byteLength":1696,
			"byteOffset":5088,
			"target":34962
		},
		{
			"buffer":0,
			"byteLength":3392,
			"byteOffset":6784,
			"target":34962
		},
		{
			"buffer":0,
			"byteLength":744,
			"byteOffset":10176,
			"target":34963
		},
		{
			"buffer":0,
			"byteLength":27648,
			"byteOffset":10920,
			"target":34962
		},
		{
			"buffer":0,
			"byteLength":27648,
			"byteOffset":38568,
			"target":34962
		},
		{
			"buffer":0,
			"byteLength":18432,
			"byteOffset":66216,
			"target":34962
		},
		{
			"buffer":0,
			"byteLength":36864,
			"byteOffset":84648,
			"target":34962
		},
		{
			"buffer":0,
			"byteLength":6912,
			"byteOffset":121512,
			"target":34963
		},
		{
			"buffer":0,
			"byteLength":192,
			"byteOffset":128424,
			"target":34962
		},
		{
			"buffer":0,
			"byteLength":192,
			"byteOffset":128616,
			"target":34962
		},
		{
			"buffer":0,
			"byteLength":128,
			"byteOffset":128808,
			"target":34962
		},
		{
			"buffer":0,
			"byteLength":256,
			"byteOffset":128936,
			"target":34962
		},
		{
			"buffer":0,
			"byteLength":36,
			"byteOffset":129192,
			"target":34963
		},
		{
			"buffer":0,
			"byteLength":1536,
			"byteOffset":129228,
			"target":34962
		},
		{
			"buffer":0,
			"byteLength":1536,
			"byteOffset":130764,
			"target":34962
		},
		{
			"buffer":0,
			"byteLength":1024,
			"byteOffset":132300,
			"target":34962
		},
		{
			"buffer":0,
			"byteLength":2048,
			"byteOffset":133324,
			"target":34962
		},
		{
			"buffer":0,
			"byteLength":384,
			"byteOffset":135372,
			"target":34963
		},
		{
			"buffer":0,
			"byteLength":28291260,
			"byteOffset":135756,
			"target":34962
		},
		{
			"buffer":0,
			"byteLength":28291260,
			"byteOffset":28427016,
			"target":34962
		},
		{
			"buffer":0,
			"byteLength":9528432,
			"byteOffset":56718276,
			"target":34963
		}
	],
	"buffers":[
		{
			"byteLength":66246708,
			"uri":"tag_aligner_pl_objs.bin"
		}
	]
}
